<svg version="1.1" id="prefix__Layer_1" xmlns="http://www.w3.org/2000/svg" x="0" y="0" viewBox="0 0 304 182" xml:space="preserve"><style>.prefix__st1{fill-rule:evenodd;clip-rule:evenodd;fill:#f90}</style><path d="M86.4 66.4q0 5.6 1.1 8.9t3.2 7.2q.7 1.2.7 2.3 0 1.5-1.9 3L83.2 92q-1.4.9-2.6.9-1.5 0-3-1.4a31 31 0 0 1-3.6-4.7l-3.1-5.9a37 37 0 0 1-29.4 13.8q-12.6 0-20-7.2a26 26 0 0 1-7.4-19.2q0-12.8 9.1-20.6a36 36 0 0 1 24.5-7.8q5 0 10.6.8t11.5 2.2v-7.3q0-11.4-4.7-16T48.8 15q-5.2 0-10.8 1.3A80 80 0 0 0 23.7 21l-1.6.3q-2.1 0-2.1-3.1v-4.9q0-2.4.7-3.5.7-1 2.8-2.1Q28.7 5 36.1 3.2a61 61 0 0 1 15.6-1.9q17.8 0 26.2 8.1T86.2 34v32.4zM45.8 81.6q5 0 10.3-1.8t9.5-6.4Q68 70.6 69 67t1-8.7v-4.2a84 84 0 0 0-18.6-2.3q-10 0-14.9 4t-4.9 11.5q0 7 3.7 10.6 3.6 3.7 10.5 3.7m80.3 10.8q-2.7 0-3.8-1-1.2-1-2.1-3.9L96.7 10.2q-.9-3-.9-4 0-2.4 2.4-2.5h9.8q2.9 0 3.9 1 1.2 1 2 3.9l16.8 66.2 15.6-66.2q.7-3 1.9-3.9 1.3-1 4-1h8q2.8 0 4 1t1.9 3.9l15.8 67 17.3-67q1-3 2-3.9 1.2-1 3.9-1h9.3q2.4 0 2.5 2.5l-.2 1.6-.7 2.5-24.1 77.3q-.9 3-2.1 3.9-1.2 1-3.8 1h-8.6q-2.8 0-4-1t-1.9-4L156 23l-15.4 64.4q-.7 3-1.9 4t-4 1zm128.5 2.7a66 66 0 0 1-26.9-5.8q-2.4-1.4-3.1-2.8a7 7 0 0 1-.6-2.8v-5.1q0-3.1 2.3-3.1l1.8.3 2.5 1a54 54 0 0 0 22.9 4.7 27 27 0 0 0 14.6-3.3q5.1-3.3 5.2-9.5 0-4.2-2.7-7a25 25 0 0 0-10.1-5.2L246 52a31 31 0 0 1-16-10.2A24 24 0 0 1 234.9 8q4.5-3.4 10.4-5.2a44 44 0 0 1 19.3-1.3l6.5 1.1 5.7 1.6q2.7.9 4.2 1.8 2.1 1.2 3 2.5.9 1.2.9 3.3v4.7q0 3.2-2.3 3.2-1.2 0-3.8-1.2a46 46 0 0 0-19.2-3.9q-8.6 0-13.3 2.8t-4.7 8.9q0 4.2 3 7.1t11 5.5l14.2 4.5a30 30 0 0 1 15.5 9.6q4.6 6.2 4.6 14 0 6.5-2.6 11.6a27 27 0 0 1-7.3 8.8 32 32 0 0 1-11.1 5.6 48 48 0 0 1-14.3 2.1" fill="#252f3e"/><path class="prefix__st1" d="M273.5 143.7c-32.9 24.3-80.7 37.2-121.8 37.2A220 220 0 0 1 3 124.2c-3.1-2.8-.3-6.6 3.4-4.4a300 300 0 0 0 148.8 39.5 297 297 0 0 0 113.5-23.2c5.5-2.5 10.2 3.6 4.8 7.6"/><path class="prefix__st1" d="M287.2 128.1c-4.2-5.4-27.8-2.6-38.5-1.3-3.2.4-3.7-2.4-.8-4.5 18.8-13.2 49.7-9.4 53.3-5s-1 35.4-18.6 50.2c-2.7 2.3-5.3 1.1-4.1-1.9 4-9.9 12.9-32.2 8.7-37.5"/></svg>