<svg viewBox="0 0 256 256" xmlns="http://www.w3.org/2000/svg" preserveAspectRatio="xMidYMid"><path d="M255 144.3A128 128 0 1 0 1 111.7a128 128 0 0 0 254 32.6" fill="#FF6C37"/><path d="m174.2 82.2-54 54L105 121c53-53.1 58.2-48.5 69.2-38.8" fill="#FFF"/><path d="M120.2 137.5q-.5 0-.9-.4L104 121.9q-.9-1 0-1.8c54-54 59.6-49 71-38.7q.3.3.4 1 0 .5-.4.8l-54 54q-.2.3-.8.4M106.8 121l13.4 13.4 52.1-52c-9.5-8.5-15.9-11-65.5 38.6" fill="#FF6C37"/><path d="M135.7 151.7 121 137l54-54c14.4 14.5-7.2 38.2-39.3 68.7" fill="#FFF"/><path d="M135.7 153q-.5 0-.9-.4l-14.7-14.7q-.4-.4-.3-1 0-.5.4-.8l54-54q.9-.9 1.8 0c3.3 3 5.1 7.4 5 11.9-.3 14.2-16.4 32.2-44.3 58.6zm-13-16 13 12.9c21.5-20.5 42.4-41.5 42.5-56q0-5.1-3.3-9.2z" fill="#FF6C37"/><path d="m105.2 121.3 11 11q.3.3 0 .7l-.3.1-22.7 4.9q-1.8 0-2.4-1.8-.1-1 .5-1.7l13-13q.5-.5.8-.2" fill="#FFF"/><path d="M93 139.2c-2 0-3.4-1.5-3.4-3.4q0-1.4 1-2.4l13.1-13a2 2 0 0 1 2.6 0l10.8 10.8c.8.6.8 1.8 0 2.6l-.9.5-22.5 4.8zm11.9-16.4-12.7 12.4q-.4.4-.1 1 .2.6.9.4l21.2-4.5z" fill="#FF6C37"/><path d="M202.8 52.2a20.7 20.7 0 0 0-29.3.7A20.7 20.7 0 0 0 199.1 85l-14.5-14.6z" fill="#FFF"/><path d="M188.4 89.2a22 22 0 1 1 15.3-37.9q.3.4.3 1t-.3.8l-17.3 17.3L199.9 84q.9.9 0 1.8l-.2.2q-5.1 3.1-11.3 3.2m0-41.3a19.3 19.3 0 0 0-19.2 19.3 19.3 19.3 0 0 0 28 17.3l-13.4-13.3q-.4-.3-.4-.9 0-.5.4-.9l17.1-17.1a19 19 0 0 0-12.4-4.5" fill="#FF6C37"/><path d="m203.2 52.6-.3-.2-18.3 18L199 84.9q2.3-1.5 4-3.1c8.2-8 8.2-21.1.1-29.2" fill="#FFF"/><path d="M199.2 86.2q-.6 0-1-.3l-14.5-14.6q-.4-.3-.4-.9 0-.5.4-.9l18.2-18.2q.8-.7 1.8 0l.3.3a22 22 0 0 1-4 34.4zm-12.8-15.8 12.9 13q1.6-1.1 2.8-2.4c7.3-7.3 7.7-19.2.7-26.8z" fill="#FF6C37"/><path d="M176.4 84.5c-3-3-8-3-11.1 0L117 132.7l8 8.1L176.2 96a8 8 0 0 0 .8-11.1z" fill="#FFF"/><path d="M124.9 142.1q-.5 0-.8-.4l-8.1-8q-.7-1 0-1.9l48.2-48.2a9 9 0 0 1 13 0 9 9 0 0 1 0 13q-.3 0-.4.3l-51 44.8q-.3.4-.9.4m-6.1-9.4 6.3 6.3 50.1-44c2.9-2.3 3.1-6.5.8-9.4a6.7 6.7 0 0 0-9.3-.7l-.5.4z" fill="#FF6C37"/><path d="M80 187.6q-.7.5-.6 1.3l2.2 9.2c.5 1.3-.3 2.8-1.7 3.2-1 .4-2.2 0-2.8-.7l-14-14 45.9-46 15.8.3 10.8 10.8c-2.6 2.2-18 17.1-55.6 36" fill="#FFF"/><path d="M79 202.6q-1.6 0-2.7-1.1l-14-14q-.3-.3-.3-.9 0-.5.4-.9l46-46q.4-.3.8-.3l15.9.2q.5 0 .9.4l10.7 10.8q.4.3.4 1 0 .5-.5.9l-.9.8a258 258 0 0 1-54.9 35.2l2.2 9a4 4 0 0 1-2 4.4q-1 .6-2 .5m-14-16 13.1 13q.8 1.1 1.8.6 1-.7.5-1.8l-2.2-9.2q-.2-1.9 1.3-2.7a267 267 0 0 0 54.4-34.8l-9.5-9.5-14.7-.2z" fill="#FF6C37"/><path d="m52.2 197.6 11-11L79.5 203l-26-1.8a2 2 0 0 1-1.9-2.3q0-.8.5-1.3" fill="#FFF"/><path d="m79.5 204.2-26.2-1.8c-2-.2-3.2-1.8-3-3.8q0-1.1 1-2l11-11q.8-.7 1.7 0L80.4 202q.6.6.3 1.4-.4.7-1.2.7m-16.3-15.8-10 10.2c-.5.3-.5 1 0 1.2l.4.2 22.7 1.6zm41.3-41.7q-1.2-.2-1.3-1.3 0-.6.4-1L116 132q.9-.8 1.8 0l8 8q.7.6.4 1.3t-1 1l-20.5 4.3zm12.4-12-8.5 8.6 13.9-3z" fill="#FF6C37"/><path d="m124.8 140.9-14 3.1a2 2 0 0 1-1.8-3.2l7.8-7.8z" fill="#FFF"/><path d="M110.5 145.2a3 3 0 0 1-3.3-3q0-1.5.9-2.3l7.8-7.8q.9-.8 1.8 0l8 8q.7.6.4 1.3t-1 1l-14 3zm6.4-10.5-7 6.9q-.3.3 0 .7 0 .4.7.4l11.8-2.5zm86.3-69.8q-.4-1.2-1.9-.9-1.1.6-.8 2v.3q1.2 2.6-.4 4.9-.7 1 .1 2 1 .7 2-.2c2-2.5 2.3-5.5 1-8" fill="#FF6C37"/></svg>