<svg width="512" height="512" viewBox="0 0 512 512" fill="none" xmlns="http://www.w3.org/2000/svg">
<path d="M385.55 206.292C372.133 201.939 365.205 203.406 351.132 201.819C329.378 199.371 320.711 190.596 317.034 168.014C314.977 155.408 317.406 136.951 312.153 125.524C302.107 103.735 278.602 93.9631 254.987 99.5406C235.05 104.257 218.46 124.821 217.54 145.929C216.491 170.03 229.797 190.595 252.646 197.691C263.501 201.07 275.035 202.77 286.372 203.632C307.163 205.196 308.761 217.123 314.386 226.941C317.932 233.13 321.367 239.229 321.367 257.685C321.367 276.141 317.91 282.24 314.386 288.43C308.761 298.225 301.823 304.641 281.032 306.228C269.695 307.09 258.14 308.79 247.305 312.169C224.457 319.287 211.15 339.829 212.201 363.929C213.12 385.038 229.709 405.602 249.647 410.318C273.262 415.919 296.768 406.124 306.813 384.336C312.089 372.909 314.977 359.962 317.034 347.357C320.734 324.774 329.399 315.999 351.132 313.551C365.205 311.963 379.77 313.551 392.956 305.819C406.892 295.312 419.342 279.542 419.342 257.685C419.342 235.829 405.925 212.912 385.55 206.292Z" fill="#F44250"/>
<path d="M162.343 308.904C134.92 308.904 112.551 285.777 112.551 257.424C112.551 229.071 134.92 205.943 162.343 205.943C189.766 205.943 212.135 229.071 212.135 257.424C212.135 285.755 189.745 308.904 162.343 308.904Z" fill="#121212"/>
<path d="M70.6161 413.528C43.2373 413.46 20.9344 390.242 21.0001 361.866C21.0662 333.535 43.5229 310.476 70.9677 310.567C98.3683 310.635 120.671 333.853 120.584 362.229C120.517 390.536 98.0607 413.597 70.6161 413.528Z" fill="#121212"/>
<path d="M440.581 413.527C413.116 413.686 390.572 390.718 390.418 362.434C390.264 334.036 412.479 310.727 439.834 310.567C467.301 310.409 489.845 333.377 489.999 361.661C490.152 390.037 467.938 413.368 440.581 413.527Z" fill="#121212"/>
</svg>
